<svg width="540" height="86" viewBox="0 0 540 86" fill="none" xmlns="http://www.w3.org/2000/svg">
<path fill-rule="evenodd" clip-rule="evenodd" d="M60.2245 4.73867H0.0898438V84.37H8.09174V48.5103H50.2739V40.4897H8.09174V12.7593H60.2245V4.73867Z" fill="white"/>
<path fill-rule="evenodd" clip-rule="evenodd" d="M68.5425 84.37H145.733L107.138 0.315796L68.5425 84.37ZM107.138 19.4691L133.223 76.3494H81.0524L107.138 19.4691Z" fill="white"/>
<path fill-rule="evenodd" clip-rule="evenodd" d="M158.486 84.37H222.234L202.41 56.5761C206.922 54.8262 210.75 51.9433 213.869 47.9609L213.874 47.9547L213.878 47.9484C217.608 43.1084 219.486 37.6084 219.486 31.5145C219.486 26.6194 218.322 22.1077 215.975 18.022C213.628 13.9336 210.335 10.7088 206.136 8.36397C201.778 5.89789 196.289 4.73867 189.797 4.73867H158.486V84.37ZM201.446 14.9371L201.453 14.9408L201.46 14.9445C204.661 16.5193 207.105 18.7576 208.846 21.6734C210.599 24.6077 211.484 27.8726 211.484 31.5145C211.484 36.0499 210.058 40.0181 207.183 43.4977C204.577 46.6519 201.385 48.7382 197.564 49.791L171.18 12.7593H189.905C194.841 12.7593 198.647 13.5313 201.446 14.9371ZM166.488 58.3989H191.668L193.985 58.3238L206.889 76.3494H166.488V58.3989ZM166.488 19.6207L188.404 50.3783H166.488V19.6207Z" fill="white"/>
<path d="M268.022 3.00002C273.359 3.00002 278.288 4.15045 282.77 6.47592C287.328 8.73082 290.958 11.9398 293.61 16.0942C296.284 20.2814 297.602 25.0439 297.602 30.3191V32.3191H289.6V30.3191C289.6 26.3867 288.643 23.0025 286.78 20.0977C285.101 17.4797 282.884 15.4043 280.098 13.8628C279.757 13.6744 279.408 13.4939 279.05 13.3214L279.036 13.3144L279.021 13.3071C275.719 11.6483 272.029 10.8033 267.913 10.8033C264.234 10.8033 260.826 11.3845 257.672 12.5304C254.587 13.6516 252.112 15.3418 250.193 17.5865C248.453 19.7034 247.524 22.4136 247.524 25.8638C247.524 28.9234 248.397 31.1761 249.983 32.833C251.742 34.5958 254.084 36.0027 257.084 37.0073C260.221 38.058 264.677 39.1985 270.488 40.4239C276.419 41.6592 281.091 42.8733 284.461 44.0748C288.104 45.2731 291.18 47.3182 293.65 50.1961C296.372 53.2805 297.602 57.4675 297.602 62.4842C297.602 67.5696 296.231 72.0013 293.399 75.6603C290.704 79.1635 287.113 81.7618 282.697 83.4741C278.335 85.1655 273.617 86 268.562 86C262.325 86 256.749 84.8288 251.885 82.4243C247.025 80.0217 243.23 76.6178 240.568 72.2119L240.557 72.1941L240.547 72.176C237.974 67.7106 236.71 62.6505 236.71 57.0509V55.0509H244.712V57.0509C244.712 61.3833 245.651 65.0788 247.463 68.2042C249.342 71.3227 252.032 73.7813 255.602 75.5774C259.166 77.2983 263.465 78.1967 268.562 78.1967C274.871 78.1967 279.907 76.6852 283.816 73.8053L283.823 73.8006L283.829 73.796C287.7 70.9906 289.6 67.2505 289.6 62.3755C289.6 58.9263 288.745 56.5819 287.319 55.0398C285.708 53.2968 283.647 52.0265 281.072 51.2506L281.043 51.2418L281.014 51.2321C278.322 50.3305 274.166 49.2996 268.49 48.1447C262.305 46.9017 257.183 45.5369 253.155 44.0381L253.134 44.0303L253.113 44.0219C249.062 42.4092 245.751 40.2181 243.267 37.401L243.247 37.3784L243.228 37.3553C240.711 34.3209 239.522 30.5084 239.522 26.0812C239.522 21.517 240.704 17.4232 243.112 13.8742L243.121 13.8615L243.13 13.849C245.598 10.3287 249.003 7.64504 253.266 5.7763L253.278 5.77101C257.61 3.9058 262.538 3.00002 268.022 3.00002Z" fill="white"/>
<path fill-rule="evenodd" clip-rule="evenodd" d="M347.328 0.315796L308.732 84.37H385.923L347.328 0.315796ZM347.328 19.4691L321.242 76.3494H373.413L347.328 19.4691Z" fill="white"/>
<path d="M395.972 4.73867V84.37H403.973V16.7148L452.755 64.5198V84.37H460.757V4.73867H452.755V53.2831L403.004 4.73867H395.972Z" fill="white"/>
<path fill-rule="evenodd" clip-rule="evenodd" d="M534.702 68.1744L534.708 68.1627C537.628 63.1451 539.09 57.6901 539.09 51.835V37.2738C539.09 31.4202 537.629 25.9983 534.704 21.0479C531.794 16.0484 527.838 12.0735 522.86 9.14783C517.93 6.20802 512.529 4.73867 506.697 4.73867H476.9V84.37H506.697C512.529 84.37 517.93 82.9007 522.86 79.9608C527.833 77.0383 531.789 73.103 534.702 68.1744ZM484.902 76.3494V12.7593H506.589C510.995 12.7593 515.041 13.861 518.765 16.0663L518.772 16.0702L518.779 16.0741C522.595 18.2937 525.59 21.2719 527.794 25.0284C529.99 28.7731 531.088 32.842 531.088 37.2738V51.835C531.088 56.2667 529.99 60.3356 527.794 64.0803C525.59 67.8369 522.595 70.8151 518.779 73.0346L518.772 73.0385L518.765 73.0424C515.041 75.2477 510.995 76.3494 506.589 76.3494H484.902Z" fill="white"/>
</svg>
